<svg width="16" height="14" viewBox="0 0 16 14" fill="none" xmlns="http://www.w3.org/2000/svg">
<path d="M1.37505 0.0129299C1.7963 0.0556288 2.1613 0.183725 2.4613 0.389455C2.5888 0.478734 2.64755 0.527903 2.7863 0.666349C2.9438 0.822911 3.05505 0.962653 3.1913 1.17615C3.25505 1.27448 3.3113 1.36376 3.3188 1.37541C3.3288 1.39093 3.4138 1.39999 3.7563 1.42199C3.99005 1.43751 4.35005 1.4608 4.5563 1.47504C4.76255 1.48927 5.1038 1.51256 5.31505 1.52679C5.52755 1.54103 5.8713 1.56432 6.0813 1.57855C6.2913 1.59278 6.6338 1.61607 6.8438 1.63031C7.0538 1.64454 7.3963 1.66783 7.6063 1.68206C7.8163 1.69629 8.15755 1.71958 8.36505 1.73382C8.5738 1.74805 9.86005 1.83474 11.2251 1.9279C14.0063 2.11681 14.1338 2.12587 14.6501 2.1608C15.0501 2.18927 15.1376 2.2048 15.2788 2.27984C15.4051 2.34454 15.5001 2.417 15.6063 2.52827C15.8363 2.76764 15.9788 3.07947 15.9951 3.37707C16.0026 3.49482 15.9963 3.52975 15.8763 4.16635C15.8063 4.53252 15.7213 4.98151 15.6863 5.16265C15.6163 5.53141 15.4213 6.55877 15.2138 7.65341C15.1376 8.05193 15.0626 8.45175 15.0451 8.54232C14.9976 8.79593 14.9038 8.98354 14.7351 9.16857C14.5576 9.36136 14.3363 9.48687 14.0876 9.53604C14.0438 9.54509 12.4163 9.54898 9.3413 9.54898H4.66255L4.6688 9.57744C4.67255 9.59426 4.72005 9.88668 4.77505 10.227C4.83005 10.5686 4.87755 10.8506 4.8813 10.8532C4.8838 10.8571 4.9338 10.8675 4.99005 10.8778C5.53755 10.9749 6.0038 11.4018 6.1713 11.9582L6.2063 12.076L6.7938 12.0669C7.1163 12.063 8.2513 12.0553 9.31505 12.0514L11.2488 12.0423L11.2813 11.931C11.4001 11.5351 11.6901 11.1871 12.0576 10.9994C12.2738 10.8895 12.4776 10.8416 12.7251 10.8403C12.9776 10.8403 13.1726 10.8869 13.3951 10.9981C14.1188 11.3617 14.4413 12.2558 14.1251 13.0244C13.9376 13.4798 13.5638 13.8111 13.1001 13.9353C12.7413 14.031 12.3163 13.9741 11.9938 13.7865C11.7988 13.6739 11.5888 13.476 11.4726 13.2935C11.3913 13.168 11.3063 12.9804 11.2688 12.8432C11.2513 12.7786 11.2351 12.7242 11.2326 12.7216C11.2288 12.719 10.2863 12.7229 9.13505 12.7307C7.98505 12.7384 6.85755 12.7449 6.6288 12.7449H6.2138L6.1938 12.82C6.0713 13.2793 5.79005 13.6325 5.38255 13.8395C4.6463 14.2109 3.77005 13.9133 3.3763 13.1577C3.31505 13.0399 3.26005 12.8808 3.23005 12.732C3.1988 12.5806 3.1988 12.2752 3.23005 12.1238C3.31255 11.7176 3.52505 11.3798 3.85005 11.1392C3.9488 11.0654 4.1263 10.9697 4.1938 10.9516C4.2113 10.9477 4.22505 10.9412 4.22505 10.9386C4.22505 10.9347 4.19755 10.7627 4.16255 10.5543C4.1288 10.3473 4.00755 9.60073 3.8938 8.89556C3.78005 8.19038 3.6313 7.27042 3.56255 6.85119C3.4938 6.43068 3.3688 5.65434 3.28255 5.12384C2.6738 1.37282 2.72755 1.68206 2.68505 1.6109C2.54505 1.37541 2.2913 1.08687 2.1163 0.966535C1.9188 0.830675 1.6913 0.743984 1.4313 0.705167C1.1963 0.670232 0.7688 0.68317 0.45755 0.737514C0.4163 0.743984 0.3813 0.747866 0.3788 0.745277C0.375051 0.741396 0.27755 0.0866823 0.281301 0.0815067C0.2838 0.0763311 0.4563 0.0504532 0.6063 0.031045C0.7888 0.00775433 1.23005 -0.00259686 1.37505 0.0129299ZM3.54005 2.60979C3.5863 2.90092 3.7413 3.85064 3.88255 4.72273C4.02255 5.59482 4.1663 6.47596 4.20005 6.68299C4.2338 6.88872 4.3263 7.46321 4.4063 7.95748C4.4863 8.45175 4.5538 8.85803 4.55505 8.85933C4.5563 8.86062 6.6663 8.8658 9.2438 8.87097C13.6776 8.88003 13.9351 8.87874 14.0063 8.85803C14.0476 8.84509 14.1088 8.81922 14.1413 8.8011C14.2176 8.7584 14.3188 8.64583 14.3576 8.56044C14.3788 8.51385 14.4263 8.28613 14.5188 7.80221C14.8138 6.23659 15.0288 5.10443 15.1901 4.26598C15.3588 3.38872 15.3601 3.37707 15.2776 3.20498C15.2126 3.07042 15.1013 2.94491 14.9988 2.89445C14.9263 2.85822 14.9326 2.85951 14.2688 2.81422C13.9913 2.79611 9.4113 2.48428 8.64005 2.43252C8.43255 2.41829 8.0913 2.395 7.8813 2.38077C7.6713 2.36654 7.3288 2.34324 7.1188 2.32901C6.9088 2.31478 6.5663 2.29149 6.3563 2.27726C6.1463 2.26302 5.8038 2.23973 5.5938 2.2255C5.3838 2.21127 5.04255 2.18798 4.8338 2.17374C4.6263 2.15951 4.2788 2.13622 4.06255 2.12199C3.8463 2.10775 3.6513 2.09352 3.6313 2.09223C3.61005 2.08964 3.56255 2.08576 3.5238 2.08576L3.4538 2.08317L3.54005 2.60979ZM12.5576 11.5998C12.2501 11.6671 12.0063 11.9259 11.9426 12.2532C11.8588 12.688 12.1338 13.1201 12.5576 13.2185C12.6788 13.2456 12.8588 13.2379 12.9751 13.1991C13.2051 13.1227 13.3963 12.9299 13.4851 12.6828C13.5076 12.6181 13.5176 12.5625 13.5226 12.459C13.5301 12.2895 13.5063 12.1652 13.4401 12.0294C13.3801 11.9026 13.2163 11.7331 13.0976 11.6736C12.9251 11.5856 12.7363 11.561 12.5576 11.5998ZM4.48755 11.6334C4.3488 11.68 4.26255 11.7357 4.1563 11.8456C3.99755 12.01 3.92505 12.1885 3.92505 12.424C3.92505 12.5754 3.94255 12.6517 4.00755 12.7928C4.0513 12.8872 4.08255 12.9325 4.1538 13.0076C4.31005 13.1706 4.5013 13.2521 4.73005 13.2508C4.95255 13.2495 5.12255 13.1758 5.2813 13.0102C5.42755 12.8588 5.5038 12.6919 5.52005 12.4861C5.5538 12.0734 5.2588 11.6813 4.86005 11.6076C4.7613 11.5882 4.5813 11.6011 4.48755 11.6334Z" fill="#4E4E4E"/>
<path d="M5.82511 3.72643C6.18636 3.7536 6.50511 3.77689 7.82511 3.86876C8.33761 3.90498 8.83761 3.93992 8.93761 3.94639C9.03761 3.95286 9.53761 3.98779 10.0501 4.02402C10.5626 4.06025 11.1439 4.10036 11.3439 4.1146C11.5426 4.12883 11.9626 4.1573 12.2751 4.17929C13.0051 4.22846 13.0476 4.23364 13.1264 4.27892C13.2851 4.3682 13.3589 4.55582 13.3076 4.73826C13.2714 4.87023 13.1389 4.99057 13.0064 5.01256C12.9789 5.01774 12.7901 5.00998 12.5876 4.99445C12.3851 4.98022 11.8001 4.9401 11.2876 4.90388C10.7751 4.86765 10.2751 4.83271 10.1751 4.82624C10.0751 4.81977 9.57511 4.78484 9.06261 4.74861C8.55011 4.71238 8.05011 4.67744 7.95011 4.67097C7.85011 4.6645 7.43386 4.63474 7.02511 4.60628C5.28136 4.48465 5.35261 4.48983 5.28261 4.46266C5.03261 4.36691 4.95886 4.04084 5.14011 3.83641C5.26136 3.69925 5.32636 3.6889 5.82511 3.72643Z" fill="#4E4E4E"/>
<path d="M10.0663 6.44489C12.2326 6.45266 13.0138 6.45913 13.0476 6.46948C13.1676 6.5083 13.2801 6.62863 13.3126 6.75414C13.3576 6.92364 13.2688 7.11643 13.1063 7.20441L13.0438 7.23935L9.69381 7.23417C7.85131 7.23159 6.10756 7.22512 5.81881 7.22123C5.30631 7.21347 5.29256 7.21218 5.23631 7.18371C5.07256 7.1009 4.98756 6.91587 5.03131 6.7399C5.06631 6.59757 5.16256 6.49018 5.29006 6.45007C5.36381 6.42807 5.14131 6.42807 10.0663 6.44489Z" fill="#4E4E4E"/>
</svg>
