<svg width="12" height="12" viewBox="0 0 12 12" fill="none" xmlns="http://www.w3.org/2000/svg">
<path d="M7.75 6C7.75 6.34612 7.64736 6.68446 7.45507 6.97225C7.26278 7.26003 6.98947 7.48434 6.6697 7.61679C6.34993 7.74924 5.99806 7.7839 5.65859 7.71637C5.31913 7.64885 5.00731 7.48218 4.76256 7.23744C4.51782 6.99269 4.35115 6.68087 4.28363 6.34141C4.2161 6.00194 4.25076 5.65007 4.38321 5.3303C4.51566 5.01053 4.73997 4.73722 5.02775 4.54493C5.31554 4.35264 5.65388 4.25 6 4.25C6.46397 4.25053 6.90878 4.43508 7.23685 4.76315C7.56492 5.09122 7.74947 5.53603 7.75 6ZM11.4688 3.59375V8.40625C11.4678 9.21819 11.1449 9.99662 10.5707 10.5707C9.99662 11.1449 9.21819 11.4678 8.40625 11.4688H3.59375C2.78181 11.4678 2.00338 11.1449 1.42925 10.5707C0.85512 9.99662 0.53217 9.21819 0.53125 8.40625V3.59375C0.53217 2.78181 0.85512 2.00338 1.42925 1.42925C2.00338 0.85512 2.78181 0.53217 3.59375 0.53125H8.40625C9.21819 0.53217 9.99662 0.85512 10.5707 1.42925C11.1449 2.00338 11.4678 2.78181 11.4688 3.59375ZM8.625 6C8.625 5.48082 8.47105 4.97331 8.18261 4.54163C7.89417 4.10995 7.4842 3.7735 7.00454 3.57482C6.52489 3.37614 5.99709 3.32415 5.48789 3.42544C4.97869 3.52673 4.51096 3.77673 4.14384 4.14384C3.77673 4.51096 3.52673 4.97869 3.42544 5.48789C3.32415 5.99709 3.37614 6.52489 3.57482 7.00454C3.7735 7.4842 4.10995 7.89417 4.54163 8.18261C4.97331 8.47105 5.48082 8.625 6 8.625C6.69595 8.62421 7.36317 8.3474 7.85529 7.85529C8.3474 7.36317 8.62421 6.69595 8.625 6ZM9.5 3.15625C9.5 3.02646 9.46151 2.89958 9.3894 2.79166C9.31729 2.68374 9.2148 2.59962 9.09489 2.54995C8.97497 2.50028 8.84302 2.48729 8.71572 2.51261C8.58842 2.53793 8.47149 2.60043 8.37971 2.69221C8.28793 2.78399 8.22543 2.90092 8.20011 3.02822C8.17479 3.15552 8.18778 3.28747 8.23745 3.40739C8.28712 3.5273 8.37124 3.62979 8.47916 3.7019C8.58708 3.77401 8.71396 3.8125 8.84375 3.8125C9.0178 3.8125 9.18472 3.74336 9.30779 3.62029C9.43086 3.49722 9.5 3.3303 9.5 3.15625Z" fill="#111111"/>
</svg>
