<svg width="86" height="32" viewBox="0 0 86 32" fill="none" xmlns="http://www.w3.org/2000/svg">
<path d="M7.27245 32C6.70391 32.0051 6.12503 31.9949 5.57199 31.9747C5.10682 31.9595 4.50209 31.8381 4.10928 31.57C3.58209 31.2109 3.27197 30.614 3.07557 30.0373C2.76545 29.1268 2.7086 28.1252 2.69309 27.1641C2.68792 26.3193 2.93085 24.5741 2.33646 23.8811C1.76791 23.2134 0.568804 23.1628 0.119137 22.3737C-0.273675 21.6857 0.387904 21.1344 0.899593 20.6791C1.34926 20.2795 1.98499 19.9557 2.32095 19.4549C2.66725 18.9339 2.58972 18.6405 2.58455 17.9677C2.55354 13.6832 2.39331 9.40373 2.25376 5.12424C2.25893 4.36041 2.30028 3.62187 2.59489 2.90357C2.82747 2.33702 3.17377 1.80588 3.60793 1.38096C3.98524 1.01169 4.55895 0.672774 5.05513 0.505844C5.603 0.323738 6.17154 0.257978 6.75559 0.227627C7.08638 0.227627 7.25178 0.227627 7.58257 0.227627C8.16662 0.21751 8.75067 0.328797 9.26752 0.495727C9.84641 0.682891 10.3167 0.961108 10.7871 1.36073C11.2523 1.75023 11.6192 2.30667 11.888 2.86816C12.2188 3.57129 12.3118 4.30983 12.3687 5.07366C12.4669 8.21498 12.5651 11.3614 12.6323 14.5027C11.4693 14.5128 10.3064 14.528 9.14348 14.5381C9.08146 11.5384 8.98325 8.53872 8.88505 5.53904C8.83853 4.88144 8.80752 4.17325 8.40954 3.62693C8.1356 3.24754 7.78414 3.05532 7.40684 3.06038C7.28279 3.06038 7.22077 3.06038 7.09672 3.06038C6.71425 3.06038 6.37312 3.24755 6.12503 3.61176C5.74772 4.16313 5.75289 4.94214 5.77356 5.6048C5.90795 9.71229 6.05267 13.8198 6.08368 17.9273C6.08885 18.5899 6.18188 18.9238 5.82008 19.4347C5.54098 19.8293 5.04996 20.1277 4.68816 20.4464C4.20232 20.8713 3.32366 21.4733 3.54591 22.227C3.77849 23.006 5.15333 23.264 5.7012 23.8002C6.36278 24.4477 6.15604 25.7022 6.19222 26.5824C6.18705 27.3917 6.21806 28.3326 6.59537 29.061C6.85897 29.5669 7.18975 29.8097 7.57223 29.8046C7.69628 29.8046 7.7583 29.8046 7.88234 29.8046C8.25965 29.8046 8.60595 29.5567 8.86954 29.056C9.25202 28.3326 9.29337 27.4018 9.2882 26.5874C9.26235 25.9652 9.31921 25.171 9.19516 24.5488C9.06078 23.8659 8.62662 23.6535 8.06324 23.3045C6.76076 22.5002 6.20256 22.0651 7.3965 20.7954C8.57493 20.7853 9.75337 20.7752 10.9318 20.7651C9.63449 22.1663 10.446 22.5356 11.7536 23.4208C12.9889 24.2656 12.7563 25.7932 12.7718 27.1641C12.746 28.1353 12.6891 29.1369 12.348 30.0221C12.1257 30.6039 11.8415 31.1906 11.2833 31.57C10.8801 31.8432 10.2599 31.9595 9.78955 31.9747C9.24685 31.9949 8.67314 32.0051 8.11493 32C7.76864 32 7.60324 32 7.27245 32Z" fill="white"/>
<path d="M25.1816 14.3661C25.1661 15.1755 25.1402 16.0152 24.7009 16.7183C24.4115 17.1837 23.967 17.5681 23.4346 17.7452C23.9773 17.8767 24.4115 18.2966 24.7164 18.6911C25.1712 19.2779 23.9618 20.3453 23.5845 20.6892C22.649 21.7465 22.6903 22.2725 23.7964 23.092C24.153 23.3551 24.6906 23.5878 24.918 23.9924C25.1971 24.4831 25.1351 25.2318 25.2074 25.768C25.3521 27.498 25.1868 29.2634 25.4504 30.9833C25.5847 31.8381 25.7036 31.9343 25.807 31.9697C24.6544 31.9697 23.4966 31.9697 22.344 31.9697C21.884 31.6459 21.9254 30.963 21.8892 30.4724C21.7703 28.9295 21.8685 27.3209 21.7497 25.7528C21.5791 24.4123 21.5894 23.952 20.4317 23.173C19.4135 22.4901 19.0723 21.9741 19.8528 20.932C19.9717 20.8157 21.9099 18.8581 20.5144 19.0199C19.8941 19.0301 19.2791 19.0351 18.6588 19.0452C18.0231 19.7433 15.8161 21.1394 16.3123 22.3181C16.6793 23.1831 18.0645 23.264 18.4728 24.1138C18.8914 24.9788 18.7054 26.5773 18.7105 27.4878C18.7157 28.9801 18.7054 30.4774 18.7002 31.9697C17.5424 31.9697 16.3847 31.9697 15.2269 31.9697C15.2424 30.179 15.2786 28.3832 15.2476 26.5925C15.2372 26.0259 15.2372 25.3936 15.1339 24.8271C14.9736 23.952 14.7721 23.7597 13.9916 23.259C13.1646 22.7329 12.3377 22.2574 12.9682 21.2608C13.4127 20.5577 14.2655 20.1328 14.8031 19.5005C15.2683 18.9542 15.1804 18.509 15.1752 17.811C15.1287 12.0291 14.8858 6.25231 14.7462 0.475517C16.5862 0.470458 18.4263 0.4654 20.2663 0.460341C21.4705 0.455283 22.618 0.880196 23.5173 1.6592C24.582 2.58491 24.887 3.89506 24.9697 5.2305C25.0472 8.28077 25.1299 11.3209 25.1816 14.3661ZM20.4989 16.5514C21.6463 16.5463 21.7238 15.0136 21.698 14.2144C21.6463 11.3968 21.5636 8.57922 21.4861 5.7667C21.4395 5.11415 21.4034 4.43631 21.0209 3.89C20.7469 3.49543 20.3851 3.29815 19.9717 3.30321C19.4186 3.30827 18.8656 3.30827 18.3125 3.31333C18.4366 7.73445 18.5813 12.1556 18.6382 16.5767C19.2636 16.5666 19.8786 16.5615 20.4989 16.5514Z" fill="white"/>
<path d="M32.0196 21.2962C31.3012 22.2725 32.6502 22.9655 33.2394 23.4815C33.8751 24.0379 33.9062 24.5893 33.9992 25.3784C34.2524 27.5485 34.1181 29.7844 34.1232 31.9696C32.9706 31.9696 31.818 31.9696 30.6706 31.9696C30.6706 29.7793 30.7895 27.5435 30.5517 25.3633C30.4639 24.564 30.4329 24.0278 29.7816 23.4815C29.1976 22.9908 27.7917 22.2978 28.5153 21.3215C28.8926 20.3149 30.0917 19.7585 30.0711 18.5899C30.0556 17.7199 29.7299 16.7335 29.5645 15.8836C29.2648 14.3206 28.9598 12.7626 28.6497 11.2045C27.9313 7.61808 27.187 4.03667 26.4686 0.445138C27.6212 0.44008 28.7686 0.44008 29.9212 0.435021C30.712 5.07366 31.5441 9.70217 32.3142 14.3408C32.3556 14.3408 32.3763 14.3408 32.4176 14.3408C33.0482 9.70217 33.6219 5.05848 34.2473 0.419846C35.3999 0.414787 36.5473 0.414787 37.6999 0.409729C37.1107 3.98608 36.5525 7.56243 35.9736 11.1388C35.7048 12.798 35.4361 14.4521 35.157 16.1113C35.0226 16.9055 35.0071 17.9425 34.7125 18.6962C34.268 19.809 32.8414 20.5071 32.0196 21.2962Z" fill="white"/>
<path d="M45.0548 0.384445C46.2487 0.379387 47.391 0.794183 48.2903 1.56813C49.3447 2.47866 49.629 3.77869 49.6962 5.0939C49.7427 8.81189 49.7944 12.5299 49.8099 16.2479C49.8202 17.5833 49.5049 18.681 48.2438 19.3133C47.086 19.895 45.7577 20.1328 44.4604 20.148C43.7161 20.153 42.977 20.1631 42.2327 20.1682C41.3592 20.9978 40.5891 21.7464 41.5401 22.8037C42.2534 23.5928 42.8219 23.7294 42.9822 24.8524C43.3181 27.1944 43.1992 29.5972 43.2096 31.9646C42.057 31.9646 40.9044 31.9646 39.7518 31.9646C39.7415 30.184 39.7466 28.4034 39.7156 26.6228C39.7053 26.0563 39.6433 25.515 39.5399 24.9535C39.3797 24.0582 39.2608 23.8558 38.5785 23.2336C37.8291 22.5457 37.2192 22.0702 37.8498 21.0737C38.3098 20.3503 39.1212 19.9659 39.5399 19.197C39.8448 18.6355 39.788 18.1397 39.788 17.5125C39.7621 11.8065 39.6174 6.10054 39.5296 0.394562C41.3747 0.399621 43.2148 0.394562 45.0548 0.384445ZM46.2177 5.61998C46.1815 4.97755 46.1557 4.30983 45.7784 3.76857C45.5096 3.38413 45.153 3.18685 44.7395 3.18685C44.1916 3.19191 43.6437 3.19191 43.0907 3.19697C43.1682 8.00253 43.2613 12.803 43.2768 17.6086C43.8918 17.6035 44.5017 17.5934 45.1168 17.5884C46.2487 17.5833 46.3469 16.0809 46.3314 15.2817C46.3107 12.0594 46.2642 8.83718 46.2177 5.61998Z" fill="white"/>
<path d="M61.801 3.0705C60.6484 3.07556 59.5009 3.08061 58.3483 3.08567C58.369 5.92854 58.4 8.77141 58.4155 11.6143C58.4259 12.8131 58.431 14.012 58.431 15.2109C58.4362 16.3136 58.5809 17.5782 58.3639 18.6608C58.1106 19.9304 56.4825 20.4363 56.3533 21.6959C56.2396 22.7733 57.449 23.1426 57.8522 23.9722C58.2863 24.8726 58.2398 26.3598 58.245 27.326C58.2605 28.8738 58.2915 30.4268 58.3122 31.9747C57.1596 31.9747 56.007 31.9747 54.8544 31.9747C54.8389 30.4268 54.8079 28.8738 54.7924 27.326C54.782 26.3598 54.8441 24.8574 54.3996 23.9621C53.9912 23.1426 52.7456 22.7885 52.849 21.711C52.9627 20.4717 54.6063 19.9406 54.8854 18.7012C55.1283 17.6339 54.9629 16.344 54.9578 15.2463C54.9526 14.0474 54.9474 12.8435 54.9371 11.6446C54.9164 8.79671 54.8802 5.94878 54.8544 3.10085C53.707 3.10591 52.5544 3.11097 51.4069 3.11602C51.3966 2.20044 51.3863 1.27979 51.3811 0.364206C54.8492 0.354089 58.3173 0.343972 61.7855 0.328796C61.7906 1.24438 61.7958 2.15997 61.801 3.0705Z" fill="white"/>
<path d="M68.1429 32C67.5795 32.0051 67.0006 31.995 66.4527 31.9697C65.9876 31.9494 65.3777 31.8179 64.99 31.5346C64.4318 31.13 64.1475 30.528 63.9098 29.926C63.5687 29.061 63.4963 28.0746 63.4601 27.1388C63.455 26.0158 63.4239 24.5438 62.8037 23.5827C62.2817 22.7733 61.341 22.3889 61.7803 21.3013C62.0388 20.669 62.6332 20.3706 63.0311 19.8647C63.3619 19.4398 63.5945 19.0301 63.6772 18.4635C63.8323 17.3506 63.6824 16.1214 63.6772 14.9934C63.6669 10.1018 63.6255 5.21532 63.6049 0.323762C64.7729 0.318703 65.9359 0.318703 67.104 0.313645C67.1195 5.11415 67.1505 9.91466 67.1557 14.7152C67.1557 15.7774 67.1608 16.8397 67.1557 17.9071C67.1505 18.4382 67.0988 19.1717 66.7887 19.6421C66.4114 20.2137 65.6516 20.4717 65.3467 21.1546C64.9332 22.0753 65.3777 22.5862 65.9824 23.2842C66.768 24.1847 66.8766 25.51 66.9127 26.6734C66.9231 27.417 66.9851 28.282 67.3572 28.9498C67.6415 29.4556 67.9723 29.7035 68.3496 29.7035C68.4736 29.7035 68.5357 29.7035 68.6597 29.7035C69.037 29.7035 69.373 29.4455 69.6211 28.9447C69.9519 28.277 70.0087 27.4271 69.9984 26.6785C69.9622 25.5252 69.8382 24.1847 69.0784 23.2842C68.4788 22.5761 68.0602 22.055 68.4788 21.1394C68.7889 20.4565 69.5642 20.1935 69.9312 19.6168C70.2206 19.1565 70.2516 18.3927 70.2516 17.8767C70.2568 16.8144 70.2568 15.7522 70.2568 14.6949C70.2568 9.89948 70.231 5.10909 70.2206 0.313645C71.3887 0.308586 72.5568 0.308586 73.7249 0.303528C73.7301 5.16979 73.7508 10.031 73.7508 14.8973C73.7508 16.0405 73.8386 17.2141 73.7456 18.3472C73.6991 18.9491 73.5699 19.3083 73.2339 19.7737C72.8463 20.3048 72.2312 20.6032 71.9573 21.2507C71.5024 22.3434 72.3553 22.7379 72.8411 23.5979C73.3941 24.5742 73.4665 26.031 73.4768 27.1489C73.4975 28.0746 73.4148 29.0712 73.1202 29.921C72.9186 30.5179 72.655 31.13 72.1072 31.5397C71.7195 31.828 71.0941 31.9596 70.6289 31.9747C70.0862 31.995 69.5177 32.0051 68.9647 32.0051C68.6339 32 68.4736 32 68.1429 32Z" fill="white"/>
<path d="M82.7699 13.7237C82.7699 10.8555 82.7699 7.98229 82.7699 5.11413C82.7441 4.48182 82.7389 3.79892 82.3565 3.2779C82.0929 2.91369 81.7517 2.73158 81.3693 2.73158C81.2452 2.73158 81.1832 2.73158 81.0591 2.73158C80.6767 2.73158 80.3304 2.91369 80.0719 3.26272C79.6843 3.78375 79.6585 4.53746 79.6585 5.17989C79.6585 6.60133 79.6585 8.02276 79.6636 9.44419C79.6636 10.8403 79.9634 12.2567 80.6973 13.4556C81.0281 14.0019 81.147 14.0677 82.9715 16.7335C83.2713 17.1736 83.5711 17.6187 83.7261 18.2763C83.9277 19.1211 83.721 19.5814 83.7468 20.2947C83.7675 20.9371 83.9846 21.8476 84.8632 22.9453C85.7677 24.0733 85.9745 25.7174 85.9951 27.1388C86.021 28.0594 85.9538 29.0458 85.685 29.8957C85.4938 30.5027 85.2405 31.1249 84.6771 31.5296C84.2843 31.8128 83.6641 31.9494 83.1886 31.9696C82.6304 31.9949 82.0515 32 81.483 32C81.1935 32 81.0488 32 80.7594 32C80.1908 32 79.6119 31.9949 79.0537 31.9696C78.5627 31.9494 77.9373 31.8078 77.5187 31.5296C76.9243 31.135 76.6193 30.528 76.3661 29.9108C76.0198 29.0661 75.9164 28.0695 75.8957 27.1438C75.8854 26.0057 75.7924 24.3819 75.1256 23.4208C74.2263 22.1258 73.9782 21.5947 75.136 20.2289C76.2162 20.2188 77.3016 20.2087 78.3818 20.1985C77.3636 21.4075 77.2602 22.0348 78.1957 23.264C78.847 24.1239 79.0537 25.601 79.0899 26.6835C79.1054 27.417 79.2346 28.2921 79.5964 28.9194C79.798 29.2735 80.289 29.6883 80.749 29.6731C80.8524 29.6731 80.9041 29.6731 81.0075 29.6731C81.452 29.6731 81.8344 29.4151 82.0929 28.9143C82.4288 28.2668 82.496 27.4271 82.4805 26.6886C82.5529 25.8893 82.1859 23.8558 81.6277 23.2943C80.9454 22.5052 80.3459 21.5745 80.4958 20.4869C80.594 19.7736 80.9919 19.6067 80.6043 18.939C80.2839 18.3775 79.86 17.8615 79.4672 17.3506C78.6506 16.2934 77.8908 15.2008 77.1982 14.0677C76.4436 12.8283 76.2058 11.4271 76.1645 10.0006C76.1645 8.24027 76.1593 6.47992 76.1542 4.71957C76.1852 3.97597 76.2524 3.26778 76.5625 2.57983C76.8157 2.02339 77.1827 1.48719 77.6479 1.11286C78.0872 0.75877 78.5886 0.445144 79.1468 0.268097C79.6998 0.0910498 80.2683 0.030348 80.8576 -2.9591e-06C81.0643 -2.9591e-06 81.1677 -2.9591e-06 81.3744 -2.9591e-06C81.912 -0.0101199 82.527 0.101167 83.0284 0.25798C83.5866 0.429969 84.0879 0.738536 84.5324 1.08757C84.9924 1.45684 85.3542 1.98798 85.592 2.53936C85.8866 3.22225 85.9486 3.93044 85.9796 4.66392C85.9796 7.67372 85.9796 10.6785 85.9796 13.6883C84.9149 13.7034 83.8398 13.7136 82.7699 13.7237Z" fill="white"/>
</svg>
